<svg width="196" height="46" viewBox="0 0 196 46" fill="none" xmlns="http://www.w3.org/2000/svg">
<path d="M193.279 15.824C193.713 15.824 194.102 15.924 194.446 16.1241C194.79 16.3168 195.06 16.5872 195.254 16.9355C195.449 17.2764 195.546 17.6618 195.546 18.0916C195.546 18.5214 195.449 18.9104 195.254 19.2587C195.06 19.607 194.79 19.8812 194.446 20.0813C194.102 20.2739 193.713 20.3703 193.279 20.3703C192.837 20.3703 192.444 20.2739 192.1 20.0813C191.756 19.8812 191.486 19.607 191.292 19.2587C191.097 18.9104 191 18.5214 191 18.0916C191 17.6618 191.097 17.2764 191.292 16.9355C191.486 16.5872 191.756 16.3168 192.1 16.1241C192.444 15.924 192.837 15.824 193.279 15.824ZM193.279 19.9256C193.818 19.9256 194.252 19.7552 194.581 19.4143C194.918 19.0734 195.086 18.6325 195.086 18.0916C195.086 17.5506 194.918 17.1097 194.581 16.7688C194.252 16.4279 193.818 16.2575 193.279 16.2575C192.732 16.2575 192.295 16.4279 191.965 16.7688C191.644 17.1097 191.483 17.5506 191.483 18.0916C191.483 18.6325 191.644 19.0734 191.965 19.4143C192.295 19.7552 192.732 19.9256 193.279 19.9256ZM194.289 17.6247C194.289 17.8026 194.24 17.9545 194.143 18.0804C194.053 18.199 193.926 18.2842 193.761 18.3361L194.39 19.2587L193.683 19.2698L193.144 18.3806H192.953V19.2698H192.369V16.88H193.447C193.702 16.88 193.904 16.9467 194.053 17.08C194.21 17.2134 194.289 17.395 194.289 17.6247ZM192.953 17.9026H193.413C193.496 17.9026 193.563 17.8804 193.616 17.8359C193.675 17.7914 193.705 17.7285 193.705 17.6469C193.705 17.5654 193.675 17.5061 193.616 17.4691C193.563 17.4246 193.496 17.4024 193.413 17.4024H192.953V17.9026Z" fill="white"/>
<path d="M25.2396 0.28V19.824H21.3196V7.112L16.0836 19.824H13.1156L7.85164 7.112V19.824H3.93164V0.28H8.38364L14.5996 14.812L20.8156 0.28H25.2396Z" fill="white"/>
<path d="M38.4672 20.02C36.6379 20.02 34.9579 19.5907 33.4272 18.732C31.8966 17.8733 30.6832 16.688 29.7872 15.176C28.8912 13.6453 28.4432 11.9187 28.4432 9.996C28.4432 8.092 28.8912 6.384 29.7872 4.872C30.6832 3.34133 31.8966 2.14667 33.4272 1.288C34.9579 0.429334 36.6379 0 38.4672 0C40.3152 0 41.9952 0.429334 43.5072 1.288C45.0379 2.14667 46.2419 3.34133 47.1192 4.872C48.0152 6.384 48.4632 8.092 48.4632 9.996C48.4632 11.9187 48.0152 13.6453 47.1192 15.176C46.2419 16.688 45.0379 17.8733 43.5072 18.732C41.9766 19.5907 40.2966 20.02 38.4672 20.02ZM38.4672 16.52C39.6432 16.52 40.6792 16.2587 41.5752 15.736C42.4712 15.1947 43.1712 14.4293 43.6752 13.44C44.1792 12.4507 44.4312 11.3027 44.4312 9.996C44.4312 8.68933 44.1792 7.55067 43.6752 6.58C43.1712 5.59067 42.4712 4.83467 41.5752 4.312C40.6792 3.78933 39.6432 3.528 38.4672 3.528C37.2912 3.528 36.2459 3.78933 35.3312 4.312C34.4352 4.83467 33.7352 5.59067 33.2312 6.58C32.7272 7.55067 32.4752 8.68933 32.4752 9.996C32.4752 11.3027 32.7272 12.4507 33.2312 13.44C33.7352 14.4293 34.4352 15.1947 35.3312 15.736C36.2459 16.2587 37.2912 16.52 38.4672 16.52Z" fill="white"/>
<path d="M68.3756 19.824H64.4556L55.5796 6.412V19.824H51.6596V0.251999H55.5796L64.4556 13.692V0.251999H68.3756V19.824Z" fill="white"/>
<path d="M76.4494 3.444V8.344H83.0294V11.452H76.4494V16.632H83.8695V19.824H72.5294V0.251999H83.8695V3.444H76.4494Z" fill="white"/>
<path d="M103.252 0.28L96.6438 13.02V19.824H92.7238V13.02L86.0878 0.28H90.5118L94.7118 9.212L98.8838 0.28H103.252Z" fill="white"/>
<path d="M112.541 20.02C111.178 20.02 109.946 19.7867 108.845 19.32C107.762 18.8533 106.903 18.1813 106.269 17.304C105.634 16.4267 105.307 15.3907 105.289 14.196H109.489C109.545 14.9987 109.825 15.6333 110.329 16.1C110.851 16.5667 111.561 16.8 112.457 16.8C113.371 16.8 114.09 16.5853 114.613 16.156C115.135 15.708 115.397 15.1293 115.397 14.42C115.397 13.8413 115.219 13.3653 114.865 12.992C114.51 12.6187 114.062 12.3293 113.521 12.124C112.998 11.9 112.27 11.6573 111.337 11.396C110.067 11.0227 109.031 10.6587 108.229 10.304C107.445 9.93067 106.763 9.38 106.185 8.652C105.625 7.90533 105.345 6.916 105.345 5.684C105.345 4.52667 105.634 3.51867 106.213 2.66C106.791 1.80133 107.603 1.148 108.649 0.7C109.694 0.233334 110.889 0 112.233 0C114.249 0 115.882 0.494666 117.133 1.484C118.402 2.45467 119.102 3.81733 119.233 5.572H114.921C114.883 4.9 114.594 4.34933 114.053 3.92C113.53 3.472 112.83 3.248 111.953 3.248C111.187 3.248 110.571 3.444 110.105 3.836C109.657 4.228 109.433 4.79733 109.433 5.544C109.433 6.06667 109.601 6.50533 109.937 6.86C110.291 7.196 110.721 7.476 111.225 7.7C111.747 7.90533 112.475 8.148 113.409 8.428C114.678 8.80133 115.714 9.17467 116.517 9.548C117.319 9.92133 118.01 10.4813 118.589 11.228C119.167 11.9747 119.457 12.9547 119.457 14.168C119.457 15.2133 119.186 16.184 118.645 17.08C118.103 17.976 117.31 18.6947 116.265 19.236C115.219 19.7587 113.978 20.02 112.541 20.02Z" fill="white"/>
<path d="M139.347 0.28V19.824H135.427V11.508H127.055V19.824H123.135V0.28H127.055V8.316H135.427V0.28H139.347Z" fill="white"/>
<path d="M152.557 20.02C150.728 20.02 149.048 19.5907 147.517 18.732C145.987 17.8733 144.773 16.688 143.877 15.176C142.981 13.6453 142.533 11.9187 142.533 9.996C142.533 8.092 142.981 6.384 143.877 4.872C144.773 3.34133 145.987 2.14667 147.517 1.288C149.048 0.429334 150.728 0 152.557 0C154.405 0 156.085 0.429334 157.597 1.288C159.128 2.14667 160.332 3.34133 161.209 4.872C162.105 6.384 162.553 8.092 162.553 9.996C162.553 11.9187 162.105 13.6453 161.209 15.176C160.332 16.688 159.128 17.8733 157.597 18.732C156.067 19.5907 154.387 20.02 152.557 20.02ZM152.557 16.52C153.733 16.52 154.769 16.2587 155.665 15.736C156.561 15.1947 157.261 14.4293 157.765 13.44C158.269 12.4507 158.521 11.3027 158.521 9.996C158.521 8.68933 158.269 7.55067 157.765 6.58C157.261 5.59067 156.561 4.83467 155.665 4.312C154.769 3.78933 153.733 3.528 152.557 3.528C151.381 3.528 150.336 3.78933 149.421 4.312C148.525 4.83467 147.825 5.59067 147.321 6.58C146.817 7.55067 146.565 8.68933 146.565 9.996C146.565 11.3027 146.817 12.4507 147.321 13.44C147.825 14.4293 148.525 15.1947 149.421 15.736C150.336 16.2587 151.381 16.52 152.557 16.52Z" fill="white"/>
<path d="M191.874 0.28L186.414 19.824H181.794L178.126 5.908L174.29 19.824L169.698 19.852L164.434 0.28H168.634L172.078 15.456L176.054 0.28H180.422L184.174 15.372L187.646 0.28H191.874Z" fill="white"/>
<path d="M5.01583 35.4601V43.8241H3.92383V35.4601H5.01583Z" fill="white"/>
<path d="M13.993 43.8241H12.901L8.50895 37.1641V43.8241H7.41695V35.4481H8.50895L12.901 42.0961V35.4481H13.993V43.8241Z" fill="white"/>
<path d="M23.3065 35.4601L20.1505 43.8241H18.8905L15.7345 35.4601H16.8985L19.5265 42.6721L22.1545 35.4601H23.3065Z" fill="white"/>
<path d="M26.1358 36.3481V39.1441H29.1838V40.0441H26.1358V42.9241H29.5438V43.8241H25.0438V35.4481H29.5438V36.3481H26.1358Z" fill="white"/>
<path d="M34.3882 43.9081C33.8362 43.9081 33.3402 43.8121 32.9002 43.6201C32.4682 43.4201 32.1282 43.1481 31.8802 42.8041C31.6322 42.4521 31.5042 42.0481 31.4962 41.5921H32.6602C32.7002 41.9841 32.8602 42.3161 33.1402 42.5881C33.4282 42.8521 33.8442 42.9841 34.3882 42.9841C34.9082 42.9841 35.3162 42.8561 35.6122 42.6001C35.9162 42.3361 36.0682 42.0001 36.0682 41.5921C36.0682 41.2721 35.9802 41.0121 35.8042 40.8121C35.6282 40.6121 35.4082 40.4601 35.1442 40.3561C34.8802 40.2521 34.5242 40.1401 34.0762 40.0201C33.5242 39.8761 33.0802 39.7321 32.7442 39.5881C32.4162 39.4441 32.1322 39.2201 31.8922 38.9161C31.6602 38.6041 31.5442 38.1881 31.5442 37.6681C31.5442 37.2121 31.6602 36.8081 31.8922 36.4561C32.1242 36.1041 32.4482 35.8321 32.8642 35.6401C33.2882 35.4481 33.7722 35.3521 34.3162 35.3521C35.1002 35.3521 35.7402 35.5481 36.2362 35.9401C36.7402 36.3321 37.0242 36.8521 37.0882 37.5001H35.8882C35.8482 37.1801 35.6802 36.9001 35.3842 36.6601C35.0882 36.4121 34.6962 36.2881 34.2082 36.2881C33.7522 36.2881 33.3802 36.4081 33.0922 36.6481C32.8042 36.8801 32.6602 37.2081 32.6602 37.6321C32.6602 37.9361 32.7442 38.1841 32.9122 38.3761C33.0882 38.5681 33.3002 38.7161 33.5482 38.8201C33.8042 38.9161 34.1602 39.0281 34.6162 39.1561C35.1682 39.3081 35.6122 39.4601 35.9482 39.6121C36.2842 39.7561 36.5722 39.9841 36.8122 40.2961C37.0522 40.6001 37.1722 41.0161 37.1722 41.5441C37.1722 41.9521 37.0642 42.3361 36.8482 42.6961C36.6322 43.0561 36.3122 43.3481 35.8882 43.5721C35.4642 43.7961 34.9642 43.9081 34.3882 43.9081Z" fill="white"/>
<path d="M44.4671 35.4601V36.3481H42.1871V43.8241H41.0951V36.3481H38.8031V35.4601H44.4671Z" fill="white"/>
<path d="M52.7425 43.9081C52.1905 43.9081 51.6945 43.8121 51.2545 43.6201C50.8225 43.4201 50.4825 43.1481 50.2345 42.8041C49.9865 42.4521 49.8585 42.0481 49.8505 41.5921H51.0145C51.0545 41.9841 51.2145 42.3161 51.4945 42.5881C51.7825 42.8521 52.1985 42.9841 52.7425 42.9841C53.2625 42.9841 53.6705 42.8561 53.9665 42.6001C54.2705 42.3361 54.4225 42.0001 54.4225 41.5921C54.4225 41.2721 54.3345 41.0121 54.1585 40.8121C53.9825 40.6121 53.7625 40.4601 53.4985 40.3561C53.2345 40.2521 52.8785 40.1401 52.4305 40.0201C51.8785 39.8761 51.4345 39.7321 51.0985 39.5881C50.7705 39.4441 50.4865 39.2201 50.2465 38.9161C50.0145 38.6041 49.8985 38.1881 49.8985 37.6681C49.8985 37.2121 50.0145 36.8081 50.2465 36.4561C50.4785 36.1041 50.8025 35.8321 51.2185 35.6401C51.6425 35.4481 52.1265 35.3521 52.6705 35.3521C53.4545 35.3521 54.0945 35.5481 54.5905 35.9401C55.0945 36.3321 55.3785 36.8521 55.4425 37.5001H54.2425C54.2025 37.1801 54.0345 36.9001 53.7385 36.6601C53.4425 36.4121 53.0505 36.2881 52.5625 36.2881C52.1065 36.2881 51.7345 36.4081 51.4465 36.6481C51.1585 36.8801 51.0145 37.2081 51.0145 37.6321C51.0145 37.9361 51.0985 38.1841 51.2665 38.3761C51.4425 38.5681 51.6545 38.7161 51.9025 38.8201C52.1585 38.9161 52.5145 39.0281 52.9705 39.1561C53.5225 39.3081 53.9665 39.4601 54.3025 39.6121C54.6385 39.7561 54.9265 39.9841 55.1665 40.2961C55.4065 40.6001 55.5265 41.0161 55.5265 41.5441C55.5265 41.9521 55.4185 42.3361 55.2025 42.6961C54.9865 43.0561 54.6665 43.3481 54.2425 43.5721C53.8185 43.7961 53.3185 43.9081 52.7425 43.9081Z" fill="white"/>
<path d="M66.1575 35.5201V43.8241H65.0655V37.6321L62.3055 43.8241H61.5375L58.7655 37.6201V43.8241H57.6735V35.5201H58.8495L61.9215 42.3841L64.9935 35.5201H66.1575Z" fill="white"/>
<path d="M73.4935 41.9641H69.8455L69.1734 43.8241H68.0215L71.0454 35.5081H72.3055L75.3175 43.8241H74.1655L73.4935 41.9641ZM73.1814 41.0761L71.6694 36.8521L70.1574 41.0761H73.1814Z" fill="white"/>
<path d="M81.5794 43.8241L79.5874 40.4041H78.2674V43.8241H77.1754V35.4601H79.8754C80.5074 35.4601 81.0394 35.5681 81.4714 35.7841C81.9114 36.0001 82.2394 36.2921 82.4554 36.6601C82.6714 37.0281 82.7794 37.4481 82.7794 37.9201C82.7794 38.4961 82.6114 39.0041 82.2754 39.4441C81.9474 39.8841 81.4514 40.1761 80.7874 40.3201L82.8874 43.8241H81.5794ZM78.2674 39.5281H79.8754C80.4674 39.5281 80.9114 39.3841 81.2074 39.0961C81.5034 38.8001 81.6514 38.4081 81.6514 37.9201C81.6514 37.4241 81.5034 37.0401 81.2074 36.7681C80.9194 36.4961 80.4754 36.3601 79.8754 36.3601H78.2674V39.5281Z" fill="white"/>
<path d="M90.1642 35.4601V36.3481H87.8842V43.8241H86.7922V36.3481H84.5002V35.4601H90.1642Z" fill="white"/>
<path d="M93.1404 36.3481V39.1441H96.1884V40.0441H93.1404V42.9241H96.5484V43.8241H92.0484V35.4481H96.5484V36.3481H93.1404Z" fill="white"/>
<path d="M103.145 43.8241L101.153 40.4041H99.8327V43.8241H98.7407V35.4601H101.441C102.073 35.4601 102.605 35.5681 103.037 35.7841C103.477 36.0001 103.805 36.2921 104.021 36.6601C104.237 37.0281 104.345 37.4481 104.345 37.9201C104.345 38.4961 104.177 39.0041 103.841 39.4441C103.513 39.8841 103.017 40.1761 102.353 40.3201L104.453 43.8241H103.145ZM99.8327 39.5281H101.441C102.033 39.5281 102.477 39.3841 102.773 39.0961C103.069 38.8001 103.217 38.4081 103.217 37.9201C103.217 37.4241 103.069 37.0401 102.773 36.7681C102.485 36.4961 102.041 36.3601 101.441 36.3601H99.8327V39.5281Z" fill="white"/>
<path d="M107.709 42.3121L106.365 45.5401H105.633L106.509 42.3121H107.709Z" fill="white"/>
<path d="M118.388 35.4601V36.3481H116.108V43.8241H115.016V36.3481H112.724V35.4601H118.388Z" fill="white"/>
<path d="M124.676 43.8241L122.684 40.4041H121.364V43.8241H120.272V35.4601H122.972C123.604 35.4601 124.136 35.5681 124.568 35.7841C125.008 36.0001 125.336 36.2921 125.552 36.6601C125.768 37.0281 125.876 37.4481 125.876 37.9201C125.876 38.4961 125.708 39.0041 125.372 39.4441C125.044 39.8841 124.548 40.1761 123.884 40.3201L125.984 43.8241H124.676ZM121.364 39.5281H122.972C123.564 39.5281 124.008 39.3841 124.304 39.0961C124.6 38.8001 124.748 38.4081 124.748 37.9201C124.748 37.4241 124.6 37.0401 124.304 36.7681C124.016 36.4961 123.572 36.3601 122.972 36.3601H121.364V39.5281Z" fill="white"/>
<path d="M133.057 41.9641H129.409L128.737 43.8241H127.585L130.609 35.5081H131.869L134.881 43.8241H133.729L133.057 41.9641ZM132.745 41.0761L131.233 36.8521L129.721 41.0761H132.745Z" fill="white"/>
<path d="M139.343 35.4601C140.255 35.4601 141.043 35.6321 141.707 35.9761C142.379 36.3121 142.891 36.7961 143.243 37.4281C143.603 38.0601 143.783 38.8041 143.783 39.6601C143.783 40.5161 143.603 41.2601 143.243 41.8921C142.891 42.5161 142.379 42.9961 141.707 43.3321C141.043 43.6601 140.255 43.8241 139.343 43.8241H136.739V35.4601H139.343ZM139.343 42.9241C140.423 42.9241 141.247 42.6401 141.815 42.0721C142.383 41.4961 142.667 40.6921 142.667 39.6601C142.667 38.6201 142.379 37.8081 141.803 37.2241C141.235 36.6401 140.415 36.3481 139.343 36.3481H137.831V42.9241H139.343Z" fill="white"/>
<path d="M146.855 36.3481V39.1441H149.903V40.0441H146.855V42.9241H150.263V43.8241H145.763V35.4481H150.263V36.3481H146.855Z" fill="white"/>
<path d="M166.706 35.4601L164.282 43.8241H163.058L161.114 37.0921L159.098 43.8241L157.886 43.8361L155.546 35.4601H156.71L158.534 42.5521L160.55 35.4601H161.774L163.694 42.5281L165.53 35.4601H166.706Z" fill="white"/>
<path d="M169.533 35.4601V43.8241H168.441V35.4601H169.533Z" fill="white"/>
<path d="M174.587 43.9081C174.035 43.9081 173.539 43.8121 173.099 43.6201C172.667 43.4201 172.327 43.1481 172.079 42.8041C171.831 42.4521 171.703 42.0481 171.695 41.5921H172.859C172.899 41.9841 173.059 42.3161 173.339 42.5881C173.627 42.8521 174.043 42.9841 174.587 42.9841C175.107 42.9841 175.515 42.8561 175.811 42.6001C176.115 42.3361 176.267 42.0001 176.267 41.5921C176.267 41.2721 176.179 41.0121 176.003 40.8121C175.827 40.6121 175.607 40.4601 175.343 40.3561C175.079 40.2521 174.723 40.1401 174.275 40.0201C173.723 39.8761 173.279 39.7321 172.943 39.5881C172.615 39.4441 172.331 39.2201 172.091 38.9161C171.859 38.6041 171.743 38.1881 171.743 37.6681C171.743 37.2121 171.859 36.8081 172.091 36.4561C172.323 36.1041 172.647 35.8321 173.063 35.6401C173.487 35.4481 173.971 35.3521 174.515 35.3521C175.299 35.3521 175.939 35.5481 176.435 35.9401C176.939 36.3321 177.223 36.8521 177.287 37.5001H176.087C176.047 37.1801 175.879 36.9001 175.583 36.6601C175.287 36.4121 174.895 36.2881 174.407 36.2881C173.951 36.2881 173.579 36.4081 173.291 36.6481C173.003 36.8801 172.859 37.2081 172.859 37.6321C172.859 37.9361 172.943 38.1841 173.111 38.3761C173.287 38.5681 173.499 38.7161 173.747 38.8201C174.003 38.9161 174.359 39.0281 174.815 39.1561C175.367 39.3081 175.811 39.4601 176.147 39.6121C176.483 39.7561 176.771 39.9841 177.011 40.2961C177.251 40.6001 177.371 41.0161 177.371 41.5441C177.371 41.9521 177.263 42.3361 177.047 42.6961C176.831 43.0561 176.511 43.3481 176.087 43.5721C175.663 43.7961 175.163 43.9081 174.587 43.9081Z" fill="white"/>
<path d="M180.61 36.3481V39.1441H183.658V40.0441H180.61V42.9241H184.018V43.8241H179.518V35.4481H184.018V36.3481H180.61Z" fill="white"/>
<path d="M190.614 43.8241L188.622 40.4041H187.302V43.8241H186.21V35.4601H188.91C189.542 35.4601 190.074 35.5681 190.506 35.7841C190.946 36.0001 191.274 36.2921 191.49 36.6601C191.706 37.0281 191.814 37.4481 191.814 37.9201C191.814 38.4961 191.646 39.0041 191.31 39.4441C190.982 39.8841 190.486 40.1761 189.822 40.3201L191.922 43.8241H190.614ZM187.302 39.5281H188.91C189.502 39.5281 189.946 39.3841 190.242 39.0961C190.538 38.8001 190.686 38.4081 190.686 37.9201C190.686 37.4241 190.538 37.0401 190.242 36.7681C189.954 36.4961 189.51 36.3601 188.91 36.3601H187.302V39.5281Z" fill="white"/>
<path d="M194 27.324C194 26.4906 150.53 25.824 97 25.824C43.4704 25.9073 0 26.574 0 27.324C0 28.074 43.4704 28.824 97 28.824C150.53 28.824 194 28.1573 194 27.324Z" fill="url(#paint0_linear)"/>
<defs>
<linearGradient id="paint0_linear" x1="0" y1="27.3636" x2="194.001" y2="27.3636" gradientUnits="userSpaceOnUse">
<stop stop-color="white"/>
<stop offset="0.22" stop-color="#FBAD18"/>
<stop offset="0.3374" stop-color="#F47920"/>
<stop offset="0.5" stop-color="#F04E23"/>
<stop offset="0.6626" stop-color="#F47920"/>
<stop offset="0.78" stop-color="#FBAD18"/>
<stop offset="1" stop-color="white"/>
</linearGradient>
</defs>
</svg>
